<?xml version="1.0" standalone="no"?>
<!DOCTYPE svg PUBLIC "-//W3C//DTD SVG 1.1//EN"
  "http://www.w3.org/Graphics/SVG/1.1/DTD/svg11.dtd">
<svg version="1.1" xmlns="http://www.w3.org/2000/svg" xmlns:xlink="http://www.w3.org/1999/xlink" width="1280" height="720" viewBox="-1040.8888888888887 -32 1889.7777777777776 1063" id="ccdiagram"><filter id="grayscale"><feColorMatrix type="matrix" values="0.3333 0.3333 0.3333 0 0 0.3333 0.3333 0.3333 0 0 0.3333 0.3333 0.3333 0 0 0 0 0 1 0"></feColorMatrix></filter><defs><style type="text/css">@import url('https://fonts.googleapis.com/css?family=Open+Sans:400,700|Inconsolata:400');</style></defs><g><g pointer-events="auto"><g opacity="1"><g><g><polygon points="-160 93, 688 583, 688 620, 160 925, 96 925, -752 435, -752 398, -416 204, -416 204, -224 93" fill="#ffffff" stroke-width="2" stroke="#818181"></polygon><polygon points="-192 111, 656 601, 128 907, -720 416, -384 222" fill="#ffffff" stroke-width="0" stroke="#818181"></polygon></g></g></g></g><g pointer-events="auto"><g opacity="1"><g id="45bff8ba-329e-4e16-8cd5-1a9de765ed90"><g><g><polygon points="-192 555, 128 370, -192 185, -512 370" stroke="#f44336" stroke-width="8" fill="none"></polygon></g><g><polygon points="-192 185, -224 167, -448 296, -448 333" stroke="#f44336" stroke-width="8" fill="#f44336"></polygon><text font-family="Inconsolata" font-size="20pt" font-weight="bold" fill="#ffffff" transform="translate(-239 202) matrix(0.707 -0.409 0.707 0.409 0 0)" text-anchor="end">10.0.2.0/24</text><g transform="translate(-224 176) matrix(0.707 0.409 -0.707 0.409 0 0)"><svg width="23" height="32" style="fill: rgb(255, 255, 255);"><svg xmlns="http://www.w3.org/2000/svg" width="23" height="32" viewBox="0 0 23 32"><path d="M19.429 17.143V5.714h-8v20.304c.911-.482 2.375-1.321 3.804-2.446 1.911-1.5 4.196-3.839 4.196-6.429zm3.428-13.714v13.714c0 7.518-10.518 12.268-10.964 12.464a1.049 1.049 0 0 1-.928 0C10.519 29.411.001 24.661.001 17.143V3.429c0-.625.518-1.143 1.143-1.143h20.571c.625 0 1.143.518 1.143 1.143z"></path></svg></svg></g></g></g></g></g><g opacity="1"><g id="41c4899e-73af-452d-80cf-277fca17e1ab"><g><g><polygon points="208 786, 528 601, 208 416, -112 601" stroke="#4caf50" stroke-width="8" fill="none"></polygon></g><g><polygon points="208 416, 176 398, -48 527, -48 564" stroke="#4caf50" stroke-width="8" fill="#4caf50"></polygon><text font-family="Inconsolata" font-size="20pt" font-weight="bold" fill="#ffffff" transform="translate(161 433) matrix(0.707 -0.409 0.707 0.409 0 0)" text-anchor="end">10.0.1.0/24</text><g transform="translate(176 407) matrix(0.707 0.409 -0.707 0.409 0 0)"><svg width="23" height="32" style="fill: rgb(255, 255, 255);"><svg xmlns="http://www.w3.org/2000/svg" width="23" height="32" viewBox="0 0 23 32"><path d="M19.429 17.143V5.714h-8v20.304c.911-.482 2.375-1.321 3.804-2.446 1.911-1.5 4.196-3.839 4.196-6.429zm3.428-13.714v13.714c0 7.518-10.518 12.268-10.964 12.464a1.049 1.049 0 0 1-.928 0C10.519 29.411.001 24.661.001 17.143V3.429c0-.625.518-1.143 1.143-1.143h20.571c.625 0 1.143.518 1.143 1.143z"></path></svg></svg></g></g></g></g></g></g><g></g><g pointer-events="auto"><g opacity="1"><g id="142aea91-9325-4606-ba7a-9500541f6bd5"><g><g><polygon points="127 907, 656 601, -192 111, -721 417" stroke="#03a9f4" stroke-width="8" fill="none"></polygon></g><g><polygon points="-192 111, -224 93, -448 222, -448 259" stroke="#03a9f4" stroke-width="8" fill="#03a9f4"></polygon><text font-family="Inconsolata" font-size="20pt" font-weight="bold" fill="#ffffff" transform="translate(-232 124) matrix(0.707 -0.409 0.707 0.409 0 0)" text-anchor="end">10.0.0.0/16</text><g transform="translate(-224 97) matrix(0.707 0.409 -0.707 0.409 0 0)"><svg width="34" height="32" style="fill: rgb(255, 255, 255);"><svg xmlns="http://www.w3.org/2000/svg" width="34" height="32" viewBox="0 0 34 32"><path d="M34.286 20.571a6.858 6.858 0 0 1-6.857 6.857H8c-4.411 0-8-3.589-8-8a7.993 7.993 0 0 1 4.607-7.232c-.018-.25-.036-.518-.036-.768a9.137 9.137 0 0 1 9.143-9.143c3.821 0 7.089 2.339 8.464 5.679a4.439 4.439 0 0 1 2.964-1.107 4.58 4.58 0 0 1 4.571 4.571 4.49 4.49 0 0 1-.732 2.464c3.036.714 5.304 3.429 5.304 6.679z"></path></svg></svg></g></g></g></g></g></g><g></g><g pointer-events="auto"></g><g pointer-events="none"></g><g pointer-events="auto"><g><g cursor="cell"><line x1="158" y1="623" x2="-30" y2="654" stroke="red" stroke-width="11" opacity="0"></line><line x1="158" y1="623" x2="-30" y2="654" stroke="#ff9800" stroke-width="5" stroke-linecap="round"></line><polygon points="176 620, 139 616, 153 624, 148 634, 176 620" stroke-linejoin="round" fill="#ff9800" stroke="#ff9800" stroke-width="1"></polygon><polygon points="-48 657, -11 660, -25 653, -20 643, -48 657" stroke-linejoin="round" fill="#ff9800" stroke="#ff9800" stroke-width="1"></polygon></g></g><g><g cursor="cell"><line x1="-224" y1="315" x2="-359" y2="462" stroke="red" stroke-width="11" opacity="0"></line><line x1="-224" y1="315" x2="-359" y2="462" stroke="#ff9800" stroke-width="5" stroke-linecap="round"></line><polygon points="-368 472, -338 459, -357 459, -366 450, -368 472" stroke-linejoin="round" fill="#ff9800" stroke="#ff9800" stroke-width="1"></polygon></g></g><g><g cursor="cell"><line x1="-143" y1="416" x2="-216" y2="324" stroke="red" stroke-width="11" opacity="0"></line><line x1="-143" y1="416" x2="-216" y2="324" stroke="#ff9800" stroke-width="5" stroke-linecap="round"></line><polygon points="-224 315, -224 336, -214 327, -195 328, -224 315" stroke-linejoin="round" fill="#ff9800" stroke="#ff9800" stroke-width="1"></polygon></g></g><g><g cursor="cell"><line x1="-544" y1="685" x2="-236" y2="471" stroke="red" stroke-width="11" opacity="0"></line><line x1="-544" y1="685" x2="-236" y2="471" stroke="#ff9800" stroke-width="5" stroke-linecap="round"></line><polygon points="-224 463, -258 472, -240 473, -234 483, -224 463" stroke-linejoin="round" fill="#ff9800" stroke="#ff9800" stroke-width="1"></polygon></g></g><g><g cursor="cell"><line x1="-544" y1="685" x2="-132" y2="694" stroke="red" stroke-width="11" opacity="0"></line><line x1="-544" y1="685" x2="-132" y2="694" stroke="#ff9800" stroke-width="5" stroke-linecap="round"></line><polygon points="-113 694, -146 685, -138 694, -148 703, -113 694" stroke-linejoin="round" fill="#ff9800" stroke="#ff9800" stroke-width="1"></polygon></g></g><g><g cursor="cell"><line x1="-433" y1="509" x2="-538" y2="674" stroke="red" stroke-width="11" opacity="0"></line><line x1="-433" y1="509" x2="-538" y2="674" stroke="#ff9800" stroke-width="5" stroke-linecap="round"></line><polygon points="-544 685, -518 669, -536 671, -547 663, -544 685" stroke-linejoin="round" fill="#ff9800" stroke="#ff9800" stroke-width="1"></polygon></g></g></g><g pointer-events="auto"><g opacity="1"><g id="94e26cfb-05a5-43e4-b4ec-eec4b61c2a4f" transform="translate(0 0)"><svg x="-256" y="222" height="111" width="128" fill-rule="evenodd"><path d="M64 74v37l64-37V37L64 74z" fill="#b8b8bb"></path><path d="M0 37v37l64 37V74L0 37z" fill="#d2d2d4"></path><path d="M0 37L64 0l64 37-64 37L0 37z" fill="#ececed"></path><path d="M64 73.407l62.111-35.86.514.889-62.487 36.078h-.276L.743 38.072l.514-.89L64 73.407z" fill="#83838a"></path><path d="M63.486 74h1.027v36h-1.027z" fill="#83838a"></path><path d="M128 37v37l-64 37L0 74V37L64 0l64 37zM2.054 38.185v34.63L64 108.627l61.946-35.812v-34.63L64 2.373 2.054 38.185z" fill="#000000"></path></svg><svg x="-201" y="240" width="60" height="35" style="overflow: visible; cursor: default;"><rect transform="matrix(0.707 0.409 -0.707 0.409 0 0)" width="60" height="35" rx="5" ry="5" fill="#4286c5"></rect><text transform="matrix(0.707 0.409 -0.707 0.409 0 0)" font-family="Open Sans" font-size="20pt" text-anchor="middle" x="50%" y="75%" fill="#ffffff"><tspan>T2</tspan></text></svg></g></g><g opacity="1"><g id="41aaeef7-5171-4b2c-a594-b2e399b1ccd7" transform="translate(0 0)"><svg x="144" y="527" height="111" width="128" fill-rule="evenodd"><path d="M64 74v37l64-37V37L64 74z" fill="#b8b8bb"></path><path d="M0 37v37l64 37V74L0 37z" fill="#d2d2d4"></path><path d="M0 37L64 0l64 37-64 37L0 37z" fill="#ececed"></path><path d="M64 73.407l62.111-35.86.514.889-62.487 36.078h-.276L.743 38.072l.514-.89L64 73.407z" fill="#83838a"></path><path d="M63.486 74h1.027v36h-1.027z" fill="#83838a"></path><path d="M128 37v37l-64 37L0 74V37L64 0l64 37zM2.054 38.185v34.63L64 108.627l61.946-35.812v-34.63L64 2.373 2.054 38.185z" fill="#000000"></path></svg><svg x="199" y="545" width="60" height="35" style="overflow: visible; cursor: default;"><rect transform="matrix(0.707 0.409 -0.707 0.409 0 0)" width="60" height="35" rx="5" ry="5" fill="#4286c5"></rect><text transform="matrix(0.707 0.409 -0.707 0.409 0 0)" font-family="Open Sans" font-size="20pt" text-anchor="middle" x="50%" y="75%" fill="#ffffff"><tspan>T2</tspan></text></svg></g></g><g opacity="1"><g id="2bdef405-3727-4d51-bad0-603dedfb5c88" transform="translate(0 0)"><svg x="-240" y="379" height="94" width="97" fill-rule="evenodd"><path d="M0 18.6v18.6l32.333 18.6h32.334L97 37.2V18.6L64.667 0H32.333L0 18.6z" fill="#ececed"></path><path d="M64.667 55.8L97 37.2v37.2L64.667 93V55.8z" fill="#b8b8bb"></path><path d="M32.333 55.8h32.334V93H32.333V55.8zM0 37.2v37.2L32.333 93V55.8L0 37.2z" fill="#d2d2d4"></path><g fill="none" stroke="#83838a" stroke-width="1.04"><path d="M.955 37.877L32.333 55.8h32.334l31.378-17.923M32.333 55.8v36.211M64.667 55.8v36.574"></path></g><path d="M97 18.6v55.8L64.667 93H32.333L0 74.4V18.6L32.333 0h32.334L97 18.6zM32.865 1.989L1.989 19.751v53.498l30.876 17.762h31.27l30.876-17.762V19.751L64.135 1.989h-31.27z" fill="#000000"></path><path d="M69.912 15.583c11.818 6.798 11.818 17.836 0 24.635-11.817 6.798-31.007 6.798-42.824 0-11.818-6.799-11.818-17.837 0-24.635 11.817-6.799 31.007-6.799 42.824 0z" fill="#4286c5"></path><path d="M49.584 14.774c1.824 1.049 1.824 2.753 0 3.802-1.824 1.05-4.786 1.05-6.61 0-1.824-1.049-1.824-2.753 0-3.802 1.824-1.05 4.786-1.05 6.61 0zM60.451 21.025c1.825 1.049 1.825 2.753 0 3.803-1.824 1.049-4.786 1.049-6.61 0-1.824-1.05-1.824-2.754 0-3.803s4.786-1.049 6.61 0zM71.319 27.276c1.824 1.05 1.824 2.754 0 3.803-1.825 1.049-4.787 1.049-6.611 0-1.824-1.049-1.824-2.753 0-3.803 1.824-1.049 4.786-1.049 6.611 0zM38.497 33.654c1.824 1.05 1.824 2.754 0 3.803-1.825 1.05-4.787 1.05-6.611 0-1.824-1.049-1.824-2.753 0-3.803 1.824-1.049 4.786-1.049 6.611 0z" fill="#ffffff"></path><path d="M47.458 15.878c.453.26.393.717-.133 1.02-.526.303-1.32.337-1.773.076-.452-.26-.392-.717.133-1.019.526-.303 1.321-.337 1.773-.077z" fill="#ffffff"></path><path d="M48.111 15.621c1.012.582 1.012 1.526 0 2.108-1.011.582-2.653.582-3.664 0-1.012-.582-1.012-1.526 0-2.108 1.011-.582 2.653-.582 3.664 0zM58.978 21.872c1.012.582 1.012 1.527 0 2.108-1.011.582-2.653.582-3.664 0-1.012-.581-1.012-1.526 0-2.108 1.011-.581 2.653-.581 3.664 0zM69.846 28.124c1.011.581 1.011 1.526 0 2.108-1.012.582-2.654.582-3.665 0-1.011-.582-1.011-1.527 0-2.108 1.011-.582 2.653-.582 3.665 0z" fill="#4286c5"></path><path d="M37.024 34.502c1.011.582 1.011 1.526 0 2.108-1.012.582-2.654.582-3.665 0-1.011-.582-1.011-1.526 0-2.108 1.011-.582 2.653-.582 3.665 0z" fill="#ffffff"></path><g fill="#ffffff"><path d="M52.301 25.172L37.719 33.56l.482.834 14.584-8.388-.484-.834z"></path><path d="M46.993 26.089l6.654-1.146-4.324 5.168c.189-1.691-.757-3.313-2.33-4.022z" stroke="#ffffff" stroke-width=".36"></path></g><g fill="#ffffff"><path d="M43.488 19.937l-6.057 13.797.886.387 6.056-13.798-.885-.386z"></path><path d="M39.76 23.812l4.676-4.854-.405 6.716c-.855-1.474-2.582-2.221-4.271-1.862z" stroke="#ffffff" stroke-width=".36"></path></g><g fill="#ffffff"><path d="M61.953 30.061l-23.985 3.483.14.955 23.985-3.486-.14-.952z"></path><path d="M56.68 28.957l6.608 1.387-5.936 3.209c.804-1.503.526-3.358-.672-4.596h0z" stroke="#ffffff" stroke-width=".36"></path></g><path d="M37.96 33.977l13.12-7.547M37.873 33.927l5.792-13.134M38.037 34.022l22.478-3.281" fill="#ffffff" stroke="#ffffff" stroke-width="1.93"></path></svg></g></g><g opacity="1"><g id="e99bc24f-3835-429a-bf0c-3737e82846a9" transform="translate(0 0)"><svg x="-478" y="428" height="108.05" width="123" viewBox="0 0 32.544 28.588"><path d="M10.115 6.02v14.218l7.873-4.318V1.474z" fill="#b8b8bb" fill-rule="evenodd" stroke="#83838a" stroke-width=".268"></path><path d="M.265 2.228l9.85 3.791v14.219l-9.85-8.531z" fill="#d2d2d4" fill-rule="evenodd" stroke="#83838a" stroke-width=".265"></path><path d="M10.115 6.02l7.873-4.546L3.548.332.265 2.228z" fill="#ececed" fill-rule="evenodd" stroke="#83838a" stroke-width=".265"></path><path d="M.265 11.707l9.85 8.53 7.873-4.317V1.474L3.392.271.265 2.076z" fill="none" stroke="#000000" stroke-width=".529"></path><path d="M22.429 3.65L14.22 8.39l14.828 10.397 3.231-1.866z" fill="#ececed" fill-rule="evenodd" stroke="#83838a" stroke-width=".268"></path><path d="M14.22 8.39V22.61l14.777 5.687.051-9.509z" fill="#d2d2d4" fill-rule="evenodd" stroke="#83838a" stroke-width=".265"></path><path d="M29.048 18.787l3.231-1.866V26.4l-3.282 1.897z" fill="#b8b8bb" fill-rule="evenodd" stroke="#83838a" stroke-width=".265"></path><path d="M22.429 3.65L14.22 8.39V22.61l14.777 5.687 3.282-1.897v-9.478z" fill="none" stroke="#000000" stroke-width=".529"></path><path d="M18.582 19.764l-1.527-.59c-.28-.108-.509-.02-.509.197v1.179c0 .217.228.48.51.59l1.526.589c.28.108.509.02.509-.197v-1.178c0-.217-.228-.481-.51-.59zm-.382-1.13l3.053 1.18v.589l.763.294v-.589l3.053 1.179v.589l.763.295v-.707c0-.26-.274-.578-.61-.708l-3.206-1.237v-.786l.636.245c.281.109.509.02.509-.196v-1.179c0-.217-.228-.48-.509-.589l-2.035-.786c-.281-.108-.509-.02-.509.197v1.178c0 .217.228.481.509.59l.636.245v.786l-3.205-1.238c-.337-.13-.611-.024-.611.236v.707l.763.295zm4.198 2.603l-1.527-.589c-.28-.108-.508-.02-.508.197v1.178c0 .217.227.481.508.59l1.527.589c.28.108.508.02.508-.196v-1.18c0-.216-.227-.48-.508-.589zm3.816 1.474l-1.527-.59c-.28-.108-.509-.02-.509.197v1.179c0 .217.228.48.51.589l1.526.59c.28.108.508.02.508-.197V23.3c0-.217-.227-.48-.508-.59z" fill="#4286c5"></path></svg></g></g><g opacity="1"><g id="a0eea740-07a4-4a47-8dc5-344d092f6b62" transform="translate(0 0)"><svg x="-158" y="613" height="108.05" width="123" viewBox="0 0 32.544 28.588"><path d="M10.115 6.02v14.218l7.873-4.318V1.474z" fill="#b8b8bb" fill-rule="evenodd" stroke="#83838a" stroke-width=".268"></path><path d="M.265 2.228l9.85 3.791v14.219l-9.85-8.531z" fill="#d2d2d4" fill-rule="evenodd" stroke="#83838a" stroke-width=".265"></path><path d="M10.115 6.02l7.873-4.546L3.548.332.265 2.228z" fill="#ececed" fill-rule="evenodd" stroke="#83838a" stroke-width=".265"></path><path d="M.265 11.707l9.85 8.53 7.873-4.317V1.474L3.392.271.265 2.076z" fill="none" stroke="#000000" stroke-width=".529"></path><path d="M22.429 3.65L14.22 8.39l14.828 10.397 3.231-1.866z" fill="#ececed" fill-rule="evenodd" stroke="#83838a" stroke-width=".268"></path><path d="M14.22 8.39V22.61l14.777 5.687.051-9.509z" fill="#d2d2d4" fill-rule="evenodd" stroke="#83838a" stroke-width=".265"></path><path d="M29.048 18.787l3.231-1.866V26.4l-3.282 1.897z" fill="#b8b8bb" fill-rule="evenodd" stroke="#83838a" stroke-width=".265"></path><path d="M22.429 3.65L14.22 8.39V22.61l14.777 5.687 3.282-1.897v-9.478z" fill="none" stroke="#000000" stroke-width=".529"></path><path d="M25.604 20.872c-.071-.975-.928-2.116-1.982-2.599a2.547 2.547 0 0 0-.398-.144c-.566-.91-1.446-1.74-2.441-2.195-1.501-.687-2.76-.293-3.057.872-1.062-.091-1.77.532-1.77 1.597 0 1.436 1.27 3.181 2.84 3.899l5.961 2.73c1.41.645 2.555.121 2.555-1.17 0-1.004-.695-2.2-1.708-2.99zm-.847 3.38l-5.962-2.73c-1.098-.502-1.987-1.723-1.987-2.729 0-.916.74-1.336 1.704-1.022v-.018c0-1.148 1.016-1.613 2.27-1.04.95.435 1.763 1.34 2.102 2.252.198-.065.456-.041.738.088.626.287 1.135.986 1.135 1.56a.657.657 0 0 1-.156.454c.052.019.105.042.156.065.94.43 1.704 1.479 1.704 2.34 0 .86-.763 1.21-1.704.78z" fill="#4286c5"></path></svg></g></g><g opacity="1"><g id="25a79be1-4f2b-4483-9b63-b11b29afacee" transform="translate(0 0)"><g><polygon points="-704 592, -448 740, -512 777, -768 629" fill="#ececed"></polygon><polygon points="-768 666, -512 814, -512 777, -768 629" fill="#d2d2d4" stroke="#83838a"></polygon><polygon points="-512 814, -448 777, -448 740, -512 777" fill="#b8b8bb" stroke="#83838a"></polygon><polygon points="-704 592, -768 629, -768 666, -512 814, -448 777, -448 740" fill="none" stroke="#000000" stroke-width="2"></polygon></g></g></g></g><g pointer-events="auto"></g><g pointer-events="auto"></g><g pointer-events="auto"><g opacity="1"><g id="f027b7e1-dba9-407d-915b-02dd2babefdc" transform="translate(0 0)"><svg x="-512" y="463" overflow="visible"><text stroke="#ffffff" stroke-width="4" font-family="Open Sans" y="36.5" font-size="25pt" fill="#ff9800" font-weight="bold" transform="matrix(0.707 0.409 -0.707 0.409 0 0)" xml:space="preserve"><tspan x="8" dy="0">NAT Gateway</tspan></text><text font-family="Open Sans" y="36.5" font-size="25pt" fill="#ff9800" font-weight="bold" transform="matrix(0.707 0.409 -0.707 0.409 0 0)" xml:space="preserve"><tspan x="8" dy="0">NAT Gateway</tspan></text></svg></g></g><g opacity="1"><g id="64288309-5baf-47ee-90b9-180fe09b40dd" transform="translate(0 0)"><svg x="-224" y="629" overflow="visible"><text stroke="#ffffff" stroke-width="4" font-family="Open Sans" y="36.5" font-size="25pt" fill="#ff9800" font-weight="bold" transform="matrix(0.707 0.409 -0.707 0.409 0 0)" xml:space="preserve"><tspan x="8" dy="0">Internet Gateway</tspan></text><text font-family="Open Sans" y="36.5" font-size="25pt" fill="#ff9800" font-weight="bold" transform="matrix(0.707 0.409 -0.707 0.409 0 0)" xml:space="preserve"><tspan x="8" dy="0">Internet Gateway</tspan></text></svg></g></g><g opacity="1"><g id="bdc414a3-1b7c-4cad-b4d9-4d5ac7fc56b5" transform="translate(0 0)"><svg x="-352" y="389" overflow="visible"><text stroke="#ffffff" stroke-width="4" font-family="Open Sans" y="36.5" font-size="25pt" fill="#ff9800" font-weight="bold" transform="matrix(0.707 0.409 -0.707 0.409 0 0)" xml:space="preserve"><tspan x="8" dy="0">Elastic Load Balancer</tspan></text><text font-family="Open Sans" y="36.5" font-size="25pt" fill="#ff9800" font-weight="bold" transform="matrix(0.707 0.409 -0.707 0.409 0 0)" xml:space="preserve"><tspan x="8" dy="0">Elastic Load Balancer</tspan></text></svg></g></g><g opacity="1"><g id="401c0203-ead6-4b64-abfa-7b3a171b3892" transform="translate(0 0)"><svg x="-704" y="611" overflow="visible"><text stroke="#ffffff" stroke-width="4" font-family="Open Sans" y="36.5" font-size="25pt" fill="#ff9800" font-weight="bold" transform="matrix(0.707 0.409 -0.707 0.409 0 0)" xml:space="preserve"><tspan x="8" dy="0">External Systems</tspan></text><text font-family="Open Sans" y="36.5" font-size="25pt" fill="#ff9800" font-weight="bold" transform="matrix(0.707 0.409 -0.707 0.409 0 0)" xml:space="preserve"><tspan x="8" dy="0">External Systems</tspan></text></svg></g></g></g><g></g></g></svg>